ffmpeg started on 2025-05-12 at 18:07:02
Report written to "D:\Convert\FFMetrics\reports\ssim_report-6.txt"
Log level: 32
Command line:
ffmpeg -hide_banner -nostdin -i "G:\\\xc0\xed\xe8\xec\xe5\\\xce\xed\xe3\xee\xe8\xed\xe3\xe8\\!_35_\xcb\xe5\xf2\xee_2024\\DreamCast\\\xce\xf2\xf0\xff\xe4 \xf1\xe0\xec\xee\xf3\xe1\xe8\xe9\xf6 \xe8\xe7 \xe4\xf0\xf3\xe3\xee\xe3\xee \xec\xe8\xf0\xe0\\[DC] Isekai Suicide Squad - 01_Telegram_HEVC.mkv" -i "G:\\\xc0\xed\xe8\xec\xe5\\\xce\xed\xe3\xee\xe8\xed\xe3\xe8\\!_35_\xcb\xe5\xf2\xee_2024\\DreamCast\\\xce\xf2\xf0\xff\xe4 \xf1\xe0\xec\xee\xf3\xe1\xe8\xe9\xf6 \xe8\xe7 \xe4\xf0\xf3\xe3\xee\xe3\xee \xec\xe8\xf0\xe0\\[DC] Isekai Suicide Squad - 01_Telegram.mp4" -lavfi "[0:v]settb=AVTB,setpts=PTS-STARTPTS,format=pix_fmts=yuv420p10,fps=24000/1001,scale=1920:1080:flags=bicubic[main];[1:v]settb=AVTB,setpts=PTS-STARTPTS,format=pix_fmts=yuv420p,fps=24000/1001,scale=1920:1080:flags=bicubic[ref];[main][ref]ssim=eof_action=endall:stats_file='D\\:/Convert/FFMetrics/logs/ssim_logfile-6.txt'" -f null -
Input #0, matroska,webm, from 'G:\Аниме\Онгоинги\!_35_Лето_2024\DreamCast\Отряд самоубийц из другого мира\[DC] Isekai Suicide Squad - 01_Telegram_HEVC.mkv':
  Metadata:
    COMPATIBLE_BRANDS: isomiso2avc1mp41
    MAJOR_BRAND     : isom
    MINOR_VERSION   : 512
    ENCODER         : Lavf61.7.100
  Duration: 00:24:17.88, start: -0.021000, bitrate: 1846 kb/s
  Stream #0:0: Video: hevc (Main 10), yuv420p10le(tv, bt709, progressive), 1920x1080 [SAR 1:1 DAR 16:9], 23.98 fps, 23.98 tbr, 1k tbn (default)
      Metadata:
        HANDLER_NAME    : VideoHandler
        VENDOR_ID       : [0][0][0][0]
        ENCODER         : Lavc61.19.100 libx265
        BPS             : 1650337
        DURATION        : 00:24:17.789708333
        NUMBER_OF_FRAMES: 34952
        NUMBER_OF_BYTES : 300730439
        _STATISTICS_WRITING_APP: mkvpropedit v66.0.0 ('Josie') 64-bit
        _STATISTICS_WRITING_DATE_UTC: 2025-05-09 12:39:29
        _STATISTICS_TAGS: BPS DURATION NUMBER_OF_FRAMES NUMBER_OF_BYTES
  Stream #0:1: Audio: aac (LC), 48000 Hz, stereo, fltp (default)
      Metadata:
        HANDLER_NAME    : SoundHandler
        VENDOR_ID       : [0][0][0][0]
        ENCODER         : Lavc61.19.100 aac
        BPS             : 192258
        DURATION        : 00:24:17.877000000
        NUMBER_OF_FRAMES: 68339
        NUMBER_OF_BYTES : 35036211
        _STATISTICS_WRITING_APP: mkvpropedit v66.0.0 ('Josie') 64-bit
        _STATISTICS_WRITING_DATE_UTC: 2025-05-09 12:39:29
        _STATISTICS_TAGS: BPS DURATION NUMBER_OF_FRAMES NUMBER_OF_BYTES
Input #1, mov,mp4,m4a,3gp,3g2,mj2, from 'G:\Аниме\Онгоинги\!_35_Лето_2024\DreamCast\Отряд самоубийц из другого мира\[DC] Isekai Suicide Squad - 01_Telegram.mp4':
  Metadata:
    major_brand     : isom
    minor_version   : 512
    compatible_brands: isomiso2avc1mp41
    encoder         : Lavf61.1.100
  Duration: 00:24:17.85, start: 0.000000, bitrate: 3964 kb/s
  Stream #1:0[0x1](und): Video: h264 (High) (avc1 / 0x31637661), yuv420p(tv, bt709, progressive), 1920x1080 [SAR 1:1 DAR 16:9], 3816 kb/s, 23.98 fps, 23.98 tbr, 24k tbn (default)
      Metadata:
        handler_name    : VideoHandler
        vendor_id       : [0][0][0][0]
        encoder         : Lavc61.3.100 h264_qsv
  Stream #1:1[0x2](und): Audio: aac (HE-AACv2) (mp4a / 0x6134706D), 48000 Hz, stereo, fltp, 144 kb/s (default)
      Metadata:
        handler_name    : SoundHandler
        vendor_id       : [0][0][0][0]
Stream mapping:
  Stream #0:0 (hevc) -> settb:default
  Stream #1:0 (h264) -> settb:default
  ssim:default -> Stream #0:0 (wrapped_avframe)
  Stream #0:1 -> #0:1 (aac (native) -> pcm_s16le (native))
Output #0, null, to 'pipe:':
  Metadata:
    COMPATIBLE_BRANDS: isomiso2avc1mp41
    MAJOR_BRAND     : isom
    MINOR_VERSION   : 512
    encoder         : Lavf61.7.100
  Stream #0:0: Video: wrapped_avframe, yuv420p10le(tv, bt709, progressive), 1920x1080 [SAR 1:1 DAR 16:9], q=2-31, 200 kb/s, 23.98 fps, 23.98 tbn
      Metadata:
        encoder         : Lavc61.19.100 wrapped_avframe
  Stream #0:1: Audio: pcm_s16le, 48000 Hz, stereo, s16, 1536 kb/s (default)
      Metadata:
        HANDLER_NAME    : SoundHandler
        VENDOR_ID       : [0][0][0][0]
        _STATISTICS_TAGS: BPS DURATION NUMBER_OF_FRAMES NUMBER_OF_BYTES
        BPS             : 192258
        DURATION        : 00:24:17.877000000
        NUMBER_OF_FRAMES: 68339
        NUMBER_OF_BYTES : 35036211
        _STATISTICS_WRITING_APP: mkvpropedit v66.0.0 ('Josie') 64-bit
        _STATISTICS_WRITING_DATE_UTC: 2025-05-09 12:39:29
        encoder         : Lavc61.19.100 pcm_s16le
frame=  163 fps=0.0 q=-0.0 size=N/A time=00:00:06.79 bitrate=N/A speed=13.2x    frame=  368 fps=354 q=-0.0 size=N/A time=00:00:15.34 bitrate=N/A speed=14.8x    frame=  586 fps=379 q=-0.0 size=N/A time=00:00:24.44 bitrate=N/A speed=15.8x    frame=  853 fps=412 q=-0.0 size=N/A time=00:00:35.57 bitrate=N/A speed=17.2x    frame= 1083 fps=420 q=-0.0 size=N/A time=00:00:45.17 bitrate=N/A speed=17.5x    frame= 1322 fps=426 q=-0.0 size=N/A time=00:00:55.13 bitrate=N/A speed=17.8x    frame= 1548 fps=429 q=-0.0 size=N/A time=00:01:04.56 bitrate=N/A speed=17.9x    frame= 1767 fps=428 q=-0.0 size=N/A time=00:01:13.69 bitrate=N/A speed=17.9x    frame= 1989 fps=429 q=-0.0 size=N/A time=00:01:22.95 bitrate=N/A speed=17.9x    frame= 2206 fps=428 q=-0.0 size=N/A time=00:01:32.00 bitrate=N/A speed=17.8x    frame= 2432 fps=429 q=-0.0 size=N/A time=00:01:41.43 bitrate=N/A speed=17.9x    frame= 2672 fps=432 q=-0.0 size=N/A time=00:01:51.44 bitrate=N/A speed=  18x    frame= 2887 fps=431 q=-0.0 size=N/A time=00:02:00.41 bitrate=N/A speed=  18x    frame= 3101 fps=429 q=-0.0 size=N/A time=00:02:09.33 bitrate=N/A speed=17.9x    frame= 3266 fps=423 q=-0.0 size=N/A time=00:02:16.21 bitrate=N/A speed=17.6x    frame= 3448 fps=418 q=-0.0 size=N/A time=00:02:23.81 bitrate=N/A speed=17.4x    frame= 3629 fps=414 q=-0.0 size=N/A time=00:02:31.35 bitrate=N/A speed=17.3x    frame= 3812 fps=411 q=-0.0 size=N/A time=00:02:38.99 bitrate=N/A speed=17.1x    frame= 4013 fps=409 q=-0.0 size=N/A time=00:02:47.37 bitrate=N/A speed=17.1x    frame= 4212 fps=409 q=-0.0 size=N/A time=00:02:55.67 bitrate=N/A speed=  17x    frame= 4404 fps=407 q=-0.0 size=N/A time=00:03:03.68 bitrate=N/A speed=  17x    frame= 4606 fps=406 q=-0.0 size=N/A time=00:03:12.10 bitrate=N/A speed=16.9x    frame= 4856 fps=409 q=-0.0 size=N/A time=00:03:22.53 bitrate=N/A speed=17.1x    frame= 5052 fps=408 q=-0.0 size=N/A time=00:03:30.71 bitrate=N/A speed=  17x    frame= 5225 fps=405 q=-0.0 size=N/A time=00:03:37.92 bitrate=N/A speed=16.9x    frame= 5373 fps=401 q=-0.0 size=N/A time=00:03:44.09 bitrate=N/A speed=16.7x    frame= 5517 fps=396 q=-0.0 size=N/A time=00:03:50.14 bitrate=N/A speed=16.5x    frame= 5687 fps=394 q=-0.0 size=N/A time=00:03:57.19 bitrate=N/A speed=16.4x    frame= 5890 fps=394 q=-0.0 size=N/A time=00:04:05.66 bitrate=N/A speed=16.4x    frame= 6050 fps=391 q=-0.0 size=N/A time=00:04:12.33 bitrate=N/A speed=16.3x    frame= 6261 fps=392 q=-0.0 size=N/A time=00:04:21.13 bitrate=N/A speed=16.3x    frame= 6450 fps=391 q=-0.0 size=N/A time=00:04:29.01 bitrate=N/A speed=16.3x    frame= 6623 fps=389 q=-0.0 size=N/A time=00:04:36.23 bitrate=N/A speed=16.2x    frame= 6798 fps=388 q=-0.0 size=N/A time=00:04:43.53 bitrate=N/A speed=16.2x    frame= 6990 fps=387 q=-0.0 size=N/A time=00:04:51.54 bitrate=N/A speed=16.1x    frame= 7236 fps=389 q=-0.0 size=N/A time=00:05:01.80 bitrate=N/A speed=16.2x    frame= 7467 fps=391 q=-0.0 size=N/A time=00:05:11.43 bitrate=N/A speed=16.3x    frame= 7715 fps=393 q=-0.0 size=N/A time=00:05:21.77 bitrate=N/A speed=16.4x    frame= 7942 fps=394 q=-0.0 size=N/A time=00:05:31.24 bitrate=N/A speed=16.5x    frame= 8168 fps=396 q=-0.0 size=N/A time=00:05:40.67 bitrate=N/A speed=16.5x    frame= 8404 fps=397 q=-0.0 size=N/A time=00:05:50.51 bitrate=N/A speed=16.6x    frame= 8612 fps=397 q=-0.0 size=N/A time=00:05:59.19 bitrate=N/A speed=16.6x    frame= 8799 fps=396 q=-0.0 size=N/A time=00:06:06.99 bitrate=N/A speed=16.5x    frame= 9000 fps=396 q=-0.0 size=N/A time=00:06:15.37 bitrate=N/A speed=16.5x    frame= 9201 fps=396 q=-0.0 size=N/A time=00:06:23.75 bitrate=N/A speed=16.5x    frame= 9398 fps=396 q=-0.0 size=N/A time=00:06:31.97 bitrate=N/A speed=16.5x    frame= 9611 fps=396 q=-0.0 size=N/A time=00:06:40.85 bitrate=N/A speed=16.5x    frame= 9833 fps=397 q=-0.0 size=N/A time=00:06:50.11 bitrate=N/A speed=16.6x    frame=10056 fps=398 q=-0.0 size=N/A time=00:06:59.41 bitrate=N/A speed=16.6x    frame=10276 fps=398 q=-0.0 size=N/A time=00:07:08.59 bitrate=N/A speed=16.6x    frame=10525 fps=400 q=-0.0 size=N/A time=00:07:18.98 bitrate=N/A speed=16.7x    frame=10746 fps=401 q=-0.0 size=N/A time=00:07:28.19 bitrate=N/A speed=16.7x    frame=10961 fps=401 q=-0.0 size=N/A time=00:07:37.16 bitrate=N/A speed=16.7x    frame=11150 fps=400 q=-0.0 size=N/A time=00:07:45.04 bitrate=N/A speed=16.7x    frame=11383 fps=401 q=-0.0 size=N/A time=00:07:54.76 bitrate=N/A speed=16.7x    frame=11606 fps=401 q=-0.0 size=N/A time=00:08:04.06 bitrate=N/A speed=16.7x    frame=11818 fps=402 q=-0.0 size=N/A time=00:08:12.90 bitrate=N/A speed=16.8x    frame=12049 fps=402 q=-0.0 size=N/A time=00:08:22.54 bitrate=N/A speed=16.8x    frame=12296 fps=404 q=-0.0 size=N/A time=00:08:32.84 bitrate=N/A speed=16.8x    frame=12524 fps=404 q=-0.0 size=N/A time=00:08:42.35 bitrate=N/A speed=16.9x    frame=12759 fps=405 q=-0.0 size=N/A time=00:08:52.15 bitrate=N/A speed=16.9x    frame=12961 fps=405 q=-0.0 size=N/A time=00:09:00.58 bitrate=N/A speed=16.9x    frame=13195 fps=406 q=-0.0 size=N/A time=00:09:10.34 bitrate=N/A speed=16.9x    frame=13434 fps=407 q=-0.0 size=N/A time=00:09:20.30 bitrate=N/A speed=  17x    frame=13679 fps=408 q=-0.0 size=N/A time=00:09:30.52 bitrate=N/A speed=  17x    frame=13886 fps=408 q=-0.0 size=N/A time=00:09:39.16 bitrate=N/A speed=  17x    frame=14064 fps=407 q=-0.0 size=N/A time=00:09:46.58 bitrate=N/A speed=  17x    frame=14248 fps=406 q=-0.0 size=N/A time=00:09:54.26 bitrate=N/A speed=16.9x    frame=14474 fps=407 q=-0.0 size=N/A time=00:10:03.68 bitrate=N/A speed=  17x    frame=14743 fps=408 q=-0.0 size=N/A time=00:10:14.90 bitrate=N/A speed=  17x    frame=14991 fps=409 q=-0.0 size=N/A time=00:10:25.24 bitrate=N/A speed=17.1x    frame=15245 fps=410 q=-0.0 size=N/A time=00:10:35.84 bitrate=N/A speed=17.1x    frame=15468 fps=411 q=-0.0 size=N/A time=00:10:45.14 bitrate=N/A speed=17.1x    frame=15720 fps=412 q=-0.0 size=N/A time=00:10:55.65 bitrate=N/A speed=17.2x    frame=15966 fps=413 q=-0.0 size=N/A time=00:11:05.91 bitrate=N/A speed=17.2x    frame=16205 fps=413 q=-0.0 size=N/A time=00:11:15.88 bitrate=N/A speed=17.2x    frame=16453 fps=414 q=-0.0 size=N/A time=00:11:26.22 bitrate=N/A speed=17.3x    frame=16699 fps=415 q=-0.0 size=N/A time=00:11:36.48 bitrate=N/A speed=17.3x    frame=16975 fps=416 q=-0.0 size=N/A time=00:11:47.99 bitrate=N/A speed=17.4x    frame=17095 fps=414 q=-0.0 size=N/A time=00:11:53.00 bitrate=N/A speed=17.3x    frame=17298 fps=414 q=-0.0 size=N/A time=00:12:01.47 bitrate=N/A speed=17.3x    frame=17532 fps=414 q=-0.0 size=N/A time=00:12:11.23 bitrate=N/A speed=17.3x    frame=17792 fps=415 q=-0.0 size=N/A time=00:12:22.07 bitrate=N/A speed=17.3x    frame=18043 fps=416 q=-0.0 size=N/A time=00:12:32.54 bitrate=N/A speed=17.4x    frame=18303 fps=417 q=-0.0 size=N/A time=00:12:43.38 bitrate=N/A speed=17.4x    frame=18559 fps=418 q=-0.0 size=N/A time=00:12:54.06 bitrate=N/A speed=17.4x    frame=18813 fps=419 q=-0.0 size=N/A time=00:13:04.65 bitrate=N/A speed=17.5x    frame=19067 fps=420 q=-0.0 size=N/A time=00:13:15.25 bitrate=N/A speed=17.5x    frame=19319 fps=421 q=-0.0 size=N/A time=00:13:25.76 bitrate=N/A speed=17.5x    frame=19579 fps=422 q=-0.0 size=N/A time=00:13:36.60 bitrate=N/A speed=17.6x    frame=19822 fps=422 q=-0.0 size=N/A time=00:13:46.74 bitrate=N/A speed=17.6x    frame=20082 fps=423 q=-0.0 size=N/A time=00:13:57.58 bitrate=N/A speed=17.6x    frame=20331 fps=424 q=-0.0 size=N/A time=00:14:07.97 bitrate=N/A speed=17.7x    frame=20581 fps=424 q=-0.0 size=N/A time=00:14:18.39 bitrate=N/A speed=17.7x    frame=20811 fps=425 q=-0.0 size=N/A time=00:14:27.99 bitrate=N/A speed=17.7x    frame=21070 fps=425 q=-0.0 size=N/A time=00:14:38.79 bitrate=N/A speed=17.7x    frame=21301 fps=426 q=-0.0 size=N/A time=00:14:48.42 bitrate=N/A speed=17.8x    frame=21533 fps=426 q=-0.0 size=N/A time=00:14:58.10 bitrate=N/A speed=17.8x    frame=21750 fps=426 q=-0.0 size=N/A time=00:15:07.15 bitrate=N/A speed=17.8x    frame=21997 fps=426 q=-0.0 size=N/A time=00:15:17.45 bitrate=N/A speed=17.8x    frame=22239 fps=427 q=-0.0 size=N/A time=00:15:27.55 bitrate=N/A speed=17.8x    frame=22476 fps=427 q=-0.0 size=N/A time=00:15:37.43 bitrate=N/A speed=17.8x    frame=22726 fps=428 q=-0.0 size=N/A time=00:15:47.86 bitrate=N/A speed=17.8x    frame=22959 fps=428 q=-0.0 size=N/A time=00:15:57.58 bitrate=N/A speed=17.8x    frame=23208 fps=428 q=-0.0 size=N/A time=00:16:07.96 bitrate=N/A speed=17.9x    frame=23447 fps=429 q=-0.0 size=N/A time=00:16:17.93 bitrate=N/A speed=17.9x    frame=23675 fps=429 q=-0.0 size=N/A time=00:16:27.44 bitrate=N/A speed=17.9x    frame=23866 fps=428 q=-0.0 size=N/A time=00:16:35.41 bitrate=N/A speed=17.9x    frame=24064 fps=428 q=-0.0 size=N/A time=00:16:43.66 bitrate=N/A speed=17.8x    frame=24306 fps=428 q=-0.0 size=N/A time=00:16:53.76 bitrate=N/A speed=17.9x    frame=24529 fps=428 q=-0.0 size=N/A time=00:17:03.06 bitrate=N/A speed=17.9x    frame=24750 fps=428 q=-0.0 size=N/A time=00:17:12.28 bitrate=N/A speed=17.9x    frame=24954 fps=428 q=-0.0 size=N/A time=00:17:20.78 bitrate=N/A speed=17.9x    frame=25162 fps=428 q=-0.0 size=N/A time=00:17:29.46 bitrate=N/A speed=17.8x    frame=25413 fps=428 q=-0.0 size=N/A time=00:17:39.93 bitrate=N/A speed=17.9x    frame=25607 fps=428 q=-0.0 size=N/A time=00:17:48.02 bitrate=N/A speed=17.8x    frame=25815 fps=427 q=-0.0 size=N/A time=00:17:56.70 bitrate=N/A speed=17.8x    frame=26027 fps=427 q=-0.0 size=N/A time=00:18:05.54 bitrate=N/A speed=17.8x    frame=26249 fps=427 q=-0.0 size=N/A time=00:18:14.80 bitrate=N/A speed=17.8x    frame=26491 fps=428 q=-0.0 size=N/A time=00:18:24.89 bitrate=N/A speed=17.8x    frame=26707 fps=428 q=-0.0 size=N/A time=00:18:33.90 bitrate=N/A speed=17.8x    frame=26915 fps=427 q=-0.0 size=N/A time=00:18:42.57 bitrate=N/A speed=17.8x    frame=27138 fps=427 q=-0.0 size=N/A time=00:18:51.88 bitrate=N/A speed=17.8x    frame=27358 fps=427 q=-0.0 size=N/A time=00:19:01.05 bitrate=N/A speed=17.8x    frame=27595 fps=427 q=-0.0 size=N/A time=00:19:10.94 bitrate=N/A speed=17.8x    frame=27739 fps=426 q=-0.0 size=N/A time=00:19:16.94 bitrate=N/A speed=17.8x    frame=27931 fps=426 q=-0.0 size=N/A time=00:19:24.95 bitrate=N/A speed=17.8x    frame=28103 fps=425 q=-0.0 size=N/A time=00:19:32.12 bitrate=N/A speed=17.7x    frame=28261 fps=424 q=-0.0 size=N/A time=00:19:38.71 bitrate=N/A speed=17.7x    frame=28432 fps=424 q=-0.0 size=N/A time=00:19:45.85 bitrate=N/A speed=17.7x    frame=28600 fps=423 q=-0.0 size=N/A time=00:19:52.85 bitrate=N/A speed=17.6x    frame=28760 fps=422 q=-0.0 size=N/A time=00:19:59.53 bitrate=N/A speed=17.6x    frame=28950 fps=422 q=-0.0 size=N/A time=00:20:07.45 bitrate=N/A speed=17.6x    frame=29120 fps=421 q=-0.0 size=N/A time=00:20:14.54 bitrate=N/A speed=17.6x    frame=29308 fps=420 q=-0.0 size=N/A time=00:20:22.38 bitrate=N/A speed=17.5x    frame=29489 fps=420 q=-0.0 size=N/A time=00:20:29.93 bitrate=N/A speed=17.5x    frame=29664 fps=419 q=-0.0 size=N/A time=00:20:37.23 bitrate=N/A speed=17.5x    frame=29854 fps=419 q=-0.0 size=N/A time=00:20:45.16 bitrate=N/A speed=17.5x    frame=30047 fps=419 q=-0.0 size=N/A time=00:20:53.21 bitrate=N/A speed=17.5x    frame=30232 fps=418 q=-0.0 size=N/A time=00:21:00.92 bitrate=N/A speed=17.4x    frame=30409 fps=418 q=-0.0 size=N/A time=00:21:08.30 bitrate=N/A speed=17.4x    frame=30650 fps=418 q=-0.0 size=N/A time=00:21:18.36 bitrate=N/A speed=17.4x    frame=30865 fps=418 q=-0.0 size=N/A time=00:21:27.32 bitrate=N/A speed=17.4x    frame=31062 fps=418 q=-0.0 size=N/A time=00:21:35.54 bitrate=N/A speed=17.4x    frame=31256 fps=417 q=-0.0 size=N/A time=00:21:43.63 bitrate=N/A speed=17.4x    frame=31492 fps=418 q=-0.0 size=N/A time=00:21:53.47 bitrate=N/A speed=17.4x    frame=31687 fps=417 q=-0.0 size=N/A time=00:22:01.61 bitrate=N/A speed=17.4x    frame=31931 fps=418 q=-0.0 size=N/A time=00:22:11.78 bitrate=N/A speed=17.4x    frame=32182 fps=418 q=-0.0 size=N/A time=00:22:22.25 bitrate=N/A speed=17.4x    frame=32408 fps=418 q=-0.0 size=N/A time=00:22:31.68 bitrate=N/A speed=17.5x    frame=32643 fps=419 q=-0.0 size=N/A time=00:22:41.48 bitrate=N/A speed=17.5x    frame=32892 fps=419 q=-0.0 size=N/A time=00:22:51.87 bitrate=N/A speed=17.5x    frame=33145 fps=420 q=-0.0 size=N/A time=00:23:02.42 bitrate=N/A speed=17.5x    frame=33382 fps=420 q=-0.0 size=N/A time=00:23:12.30 bitrate=N/A speed=17.5x    frame=33615 fps=420 q=-0.0 size=N/A time=00:23:22.02 bitrate=N/A speed=17.5x    frame=33858 fps=420 q=-0.0 size=N/A time=00:23:32.16 bitrate=N/A speed=17.5x    frame=34103 fps=421 q=-0.0 size=N/A time=00:23:42.37 bitrate=N/A speed=17.5x    frame=34314 fps=421 q=-0.0 size=N/A time=00:23:51.17 bitrate=N/A speed=17.5x    frame=34512 fps=420 q=-0.0 size=N/A time=00:23:59.43 bitrate=N/A speed=17.5x    frame=34755 fps=421 q=-0.0 size=N/A time=00:24:09.57 bitrate=N/A speed=17.5x    [Parsed_ssim_10 @ 000001f9aaa57700] SSIM Y:0.988722 (19.477538) U:0.992178 (21.066594) V:0.992690 (21.360947) All:0.989959 (19.982254)
[out#0/null @ 000001f9aada0640] video:15018KiB audio:273356KiB subtitle:0KiB other streams:0KiB global headers:0KiB muxing overhead: unknown
frame=34952 fps=421 q=-0.0 Lsize=N/A time=00:24:17.78 bitrate=N/A speed=17.6x    
